<mxfile host="app.diagrams.net" agent="Mozilla/5.0 (X11; Linux x86_64) AppleWebKit/537.36 (KHTML, like Gecko) Chrome/127.0.0.0 Safari/537.36" version="24.7.6">
  <diagram name="Page-1" id="eiEsg3ecKwTSKWMTrRUv">
    <mxGraphModel dx="683" dy="662" grid="1" gridSize="10" guides="1" tooltips="1" connect="1" arrows="1" fold="1" page="1" pageScale="1" pageWidth="850" pageHeight="1100" math="1" shadow="0">
      <root>
        <mxCell id="0" />
        <mxCell id="1" parent="0" />
        <mxCell id="FrFn8Io9Gsi2ZY6_JBwY-1" value="&lt;div style=&quot;font-size: 16px;&quot;&gt;\[ LU \]&lt;/div&gt;&lt;div style=&quot;font-size: 16px;&quot;&gt;&lt;span style=&quot;color: rgba(0, 0, 0, 0); font-family: monospace; font-size: 0px; text-align: start; text-wrap: nowrap;&quot;&gt;%3CmxGraphModel%3E%3Croot%3E%3CmxCell%20id%3D%220%22%2F%3E%3CmxCell%20id%3D%221%22%20parent%3D%220%22%2F%3E%3CmxCell%20id%3D%222%22%20value%3D%22Low%26amp%3Bnbsp%3B%26lt%3Bdiv%26gt%3BUtilization%26lt%3B%2Fdiv%26gt%3B%22%20style%3D%22text%3Bhtml%3D1%3Balign%3Dcenter%3BverticalAlign%3Dmiddle%3BwhiteSpace%3Dwrap%3Brounded%3D0%3B%22%20vertex%3D%221%22%20parent%3D%221%22%3E%3CmxGeometry%20x%3D%2235%22%20y%3D%22230%22%20width%3D%2290%22%20height%3D%2230%22%20as%3D%22geometry%22%2F%3E%3C%2FmxCell%3E%3C%2Froot%3E%3C%2FmxGraphModel%3E&lt;/span&gt;&lt;br&gt;&lt;/div&gt;" style="ellipse;whiteSpace=wrap;html=1;aspect=fixed;fontSize=16;" vertex="1" parent="1">
          <mxGeometry x="210" y="30" width="100" height="100" as="geometry" />
        </mxCell>
        <mxCell id="FrFn8Io9Gsi2ZY6_JBwY-2" value="&lt;div style=&quot;font-size: 16px;&quot;&gt;\[ Sundown \]&lt;/div&gt;" style="ellipse;whiteSpace=wrap;html=1;aspect=fixed;fontSize=16;" vertex="1" parent="1">
          <mxGeometry x="210" y="250" width="100" height="100" as="geometry" />
        </mxCell>
        <mxCell id="FrFn8Io9Gsi2ZY6_JBwY-3" value="" style="endArrow=classic;html=1;rounded=0;entryX=0.5;entryY=0;entryDx=0;entryDy=0;exitX=0.5;exitY=1;exitDx=0;exitDy=0;" edge="1" parent="1" source="FrFn8Io9Gsi2ZY6_JBwY-1" target="FrFn8Io9Gsi2ZY6_JBwY-2">
          <mxGeometry width="50" height="50" relative="1" as="geometry">
            <mxPoint x="210" y="220" as="sourcePoint" />
            <mxPoint x="530" y="390" as="targetPoint" />
          </mxGeometry>
        </mxCell>
        <mxCell id="FrFn8Io9Gsi2ZY6_JBwY-4" value="&lt;span style=&quot;background-color: rgb(251, 251, 251);&quot;&gt;&lt;span style=&quot;font-size: 16px; text-wrap: wrap;&quot;&gt;\[ U(t)&amp;lt;{Threshold}_{\text{low}}​∧{t}_{\text{LU}}​&amp;gt;{t}_{\text{low}}​∧¬Default\ ∧ C(t)=0\]&lt;/span&gt;&lt;/span&gt;" style="edgeLabel;html=1;align=center;verticalAlign=middle;resizable=0;points=[];" vertex="1" connectable="0" parent="FrFn8Io9Gsi2ZY6_JBwY-3">
          <mxGeometry x="0.3646" y="-1" relative="1" as="geometry">
            <mxPoint x="1" y="-22" as="offset" />
          </mxGeometry>
        </mxCell>
        <mxCell id="FrFn8Io9Gsi2ZY6_JBwY-6" value="Low&amp;nbsp;&lt;div&gt;Utilization&lt;/div&gt;" style="text;html=1;align=center;verticalAlign=middle;whiteSpace=wrap;rounded=0;" vertex="1" parent="1">
          <mxGeometry x="215" y="80" width="90" height="30" as="geometry" />
        </mxCell>
      </root>
    </mxGraphModel>
  </diagram>
</mxfile>
